<?xml version="1.0" encoding="UTF-8" standalone="no"?>
<!-- Created with Inkscape (http://www.inkscape.org/) -->

<svg
   width="6.52034mm"
   height="6.5139689mm"
   viewBox="0 0 6.52034 6.5139689"
   version="1.1"
   id="svg5"
   inkscape:version="1.1.2 (76b9e6a115, 2022-02-25)"
   sodipodi:docname="glass.svg"
   xmlns:inkscape="http://www.inkscape.org/namespaces/inkscape"
   xmlns:sodipodi="http://sodipodi.sourceforge.net/DTD/sodipodi-0.dtd"
   xmlns="http://www.w3.org/2000/svg"
   xmlns:svg="http://www.w3.org/2000/svg">
  <sodipodi:namedview
     id="namedview7"
     pagecolor="#ffffff"
     bordercolor="#666666"
     borderopacity="1.0"
     inkscape:pageshadow="2"
     inkscape:pageopacity="0.0"
     inkscape:pagecheckerboard="0"
     inkscape:document-units="mm"
     showgrid="false"
     inkscape:zoom="0.84906002"
     inkscape:cx="18.255482"
     inkscape:cy="22.966574"
     inkscape:window-width="1366"
     inkscape:window-height="654"
     inkscape:window-x="0"
     inkscape:window-y="27"
     inkscape:window-maximized="1"
     inkscape:current-layer="layer1" />
  <defs
     id="defs2" />
  <g
     inkscape:label="Capa 1"
     inkscape:groupmode="layer"
     id="layer1"
     transform="translate(-136.07007,-60.750854)">
    <path
       style="fill:#001a43;fill-opacity:1;stroke-width:0.0138874"
       d="m 141.14612,66.625972 -0.63871,-0.638819 h -0.012 -0.012 l -0.11661,0.07044 -0.11662,0.07044 -0.1346,0.0629 -0.13461,0.0629 -0.16038,0.05349 -0.16039,0.05349 -0.17359,0.03493 -0.17359,0.03493 -0.19588,0.01586 -0.19587,0.01586 -0.19297,-0.01593 -0.19298,-0.01592 -0.17359,-0.03487 -0.17359,-0.03487 -0.16665,-0.05548 -0.16665,-0.05548 -0.18053,-0.08815 -0.18054,-0.08815 -0.12499,-0.08255 -0.12498,-0.08255 -0.10662,-0.08499 -0.10661,-0.08499 -0.12535,-0.125349 -0.12535,-0.125348 -0.0979,-0.126643 -0.0979,-0.126643 -0.075,-0.121289 -0.075,-0.12129 -0.0495,-0.09833 -0.0495,-0.09833 -0.0493,-0.119194 -0.0493,-0.119194 -0.0468,-0.163222 -0.0468,-0.163222 -0.0228,-0.13193 -0.0228,-0.13193 -0.0136,-0.185912 -0.0136,-0.185912 0.0147,-0.189047 0.0147,-0.189047 0.0343,-0.171333 0.0343,-0.171334 0.056,-0.168907 0.056,-0.168907 0.0889,-0.180536 0.0889,-0.180536 0.0815,-0.124986 0.0815,-0.124986 0.0842,-0.104156 0.0842,-0.104155 0.12157,-0.12198 0.12157,-0.121981 0.10565,-0.08532 0.10565,-0.08532 0.12498,-0.08191 0.12499,-0.08191 0.18054,-0.08834 0.18053,-0.08834 0.16891,-0.0561 0.16891,-0.0561 0.17133,-0.03467 0.17133,-0.03467 0.19499,-0.01465 0.19498,-0.01465 0.19386,0.01467 0.19387,0.01467 0.17359,0.03498 0.17359,0.03498 0.16332,0.05447 0.16333,0.05447 0.15608,0.07437 0.15609,0.07437 0.12708,0.07881 0.12708,0.07881 0.12289,0.09504 0.12289,0.09504 0.1256,0.123776 0.1256,0.123776 0.0885,0.111018 0.0885,0.111019 0.0825,0.124986 0.0826,0.124986 0.0882,0.180536 0.0882,0.180536 0.0555,0.166648 0.0555,0.166649 0.0352,0.17437 0.0352,0.174371 0.0139,0.194938 0.0139,0.194939 -0.0135,0.176887 -0.0135,0.176887 -0.0209,0.120397 -0.0209,0.120398 -0.0213,0.08332 -0.0213,0.08333 -0.0428,0.131198 -0.0428,0.131198 -0.055,0.125076 -0.055,0.125076 -0.0824,0.142961 -0.0824,0.142961 v 0.01039 0.01039 l 0.64222,0.642328 0.64222,0.642329 -0.39563,0.395808 -0.39562,0.395807 h -0.007 -0.007 z m -1.83866,-1.040491 0.13336,-0.02651 0.12628,-0.04231 0.12629,-0.04231 0.12921,-0.06477 0.1292,-0.06477 0.12499,-0.08485 0.12499,-0.08485 0.13357,-0.132112 0.13358,-0.132111 0.0861,-0.118043 0.0861,-0.118042 0.0822,-0.163764 0.0821,-0.163764 0.0413,-0.134814 0.0413,-0.134815 0.0243,-0.124986 0.0243,-0.124987 -3.2e-4,-0.222198 -3.2e-4,-0.222198 -0.024,-0.124986 -0.024,-0.124986 -0.0405,-0.13193 -0.0405,-0.13193 -0.0705,-0.144052 -0.0705,-0.144051 -0.0822,-0.119809 -0.0822,-0.119808 -0.0922,-0.100791 -0.0922,-0.10079 -0.0995,-0.08126 -0.0995,-0.08126 -0.0972,-0.0627 -0.0972,-0.0627 -0.1111,-0.05559 -0.1111,-0.05559 -0.12498,-0.0426 -0.12499,-0.0426 -0.14582,-0.03089 -0.14582,-0.03089 h -0.23608 -0.23609 l -0.14581,0.03095 -0.14582,0.03095 -0.12077,0.04031 -0.12076,0.04031 -0.12292,0.06173 -0.12292,0.06173 -0.12908,0.08634 -0.12909,0.08634 -0.13477,0.133659 -0.13477,0.133659 -0.0713,0.09637 -0.0713,0.09637 -0.0581,0.101534 -0.0581,0.101534 -0.0556,0.128447 -0.0556,0.128447 -0.0393,0.154773 -0.0393,0.154773 -0.0163,0.150749 -0.0164,0.150749 0.009,0.144999 0.009,0.144999 0.026,0.134225 0.026,0.134224 0.0423,0.126233 0.0423,0.126232 0.0648,0.129208 0.0648,0.129208 0.0849,0.124986 0.0849,0.124986 0.14597,0.145965 0.14596,0.145966 0.12499,0.08489 0.12498,0.08489 0.13098,0.06565 0.13097,0.06566 0.13983,0.04554 0.13983,0.04554 0.13193,0.02236 0.13193,0.02236 0.0417,0.006 0.0417,0.006 0.19442,-0.006 0.19442,-0.006 0.13335,-0.02651 z"
       id="path21" />
  </g>
</svg>
