<?xml version="1.0" standalone="no"?>
<!DOCTYPE svg PUBLIC "-//W3C//DTD SVG 20010904//EN"
 "http://www.w3.org/TR/2001/REC-SVG-20010904/DTD/svg10.dtd">
<svg version="1.0" xmlns="http://www.w3.org/2000/svg"
 width="1200.000000pt" height="1200.000000pt" viewBox="0 0 1200.000000 1200.000000"
 preserveAspectRatio="xMidYMid meet">

<g transform="translate(0.000000,1200.000000) scale(0.100000,-0.100000)"
fill="#000000" stroke="none">
<path d="M0 6000 l0 -6000 6000 0 6000 0 0 6000 0 6000 -6000 0 -6000 0 0
-6000z m4635 1796 c248 -33 450 -172 617 -426 207 -315 304 -661 327 -1175 9
-181 0 -461 -19 -610 -63 -490 -256 -920 -509 -1131 -83 -69 -243 -149 -341
-171 -92 -20 -301 -23 -384 -4 -151 33 -279 105 -397 221 -155 153 -257 331
-350 613 -137 414 -166 1031 -73 1537 69 371 222 704 411 894 150 151 290 224
478 251 118 17 123 17 240 1z m2346 -1 c83 -7 154 -31 252 -85 97 -53 120 -51
154 10 43 77 53 84 132 82 77 -1 103 -11 126 -46 18 -27 175 -800 175 -861 0
-57 -24 -78 -98 -83 -80 -6 -136 11 -168 52 -15 18 -64 107 -111 197 -174 338
-273 449 -413 466 -144 17 -249 -71 -297 -248 -16 -59 -17 -165 -21 -1294 -2
-852 0 -1249 8 -1293 22 -129 59 -167 162 -167 60 0 70 3 97 29 67 64 66 52
66 751 0 510 -3 636 -14 662 -8 20 -32 44 -61 62 -64 39 -85 93 -77 189 8 87
21 98 129 107 112 9 939 2 960 -8 24 -12 38 -61 38 -136 -1 -89 -15 -115 -80
-153 -41 -25 -58 -42 -67 -68 -9 -26 -12 -242 -12 -832 -1 -562 -4 -804 -12
-821 -15 -33 -49 -47 -110 -47 -61 0 -102 17 -154 65 -73 67 -138 116 -188
141 -97 50 -92 50 -150 -9 -142 -145 -292 -206 -472 -193 -216 16 -387 115
-540 311 -297 383 -445 973 -407 1622 13 217 18 257 59 462 108 546 427 998
783 1112 64 20 186 38 225 33 11 -2 50 -5 86 -9z m2354 5 c219 -23 359 -94
521 -261 118 -122 242 -330 319 -534 43 -115 93 -324 117 -492 19 -137 22
-202 23 -488 0 -336 -4 -392 -45 -610 -28 -144 -62 -263 -115 -400 -159 -412
-378 -643 -690 -726 -106 -29 -317 -31 -419 -6 -284 71 -504 284 -657 639 -89
205 -140 401 -176 678 -24 186 -24 659 0 845 39 309 98 525 202 740 193 399
451 598 810 623 11 1 61 -3 110 -8z m-6578 -73 c14 -14 18 -39 21 -120 5 -120
-2 -133 -88 -175 -33 -16 -64 -40 -77 -61 l-23 -34 0 -1398 0 -1399 77 0 c91
0 146 22 180 73 26 37 79 190 114 321 25 96 51 144 89 163 30 15 178 17 215 3
48 -18 48 -38 0 -368 -58 -400 -59 -401 -101 -421 -35 -16 -1473 -16 -1507 0
-34 15 -47 49 -47 119 0 81 11 103 63 128 53 25 93 69 107 120 6 25 10 481 10
1360 0 1494 9 1348 -86 1401 -68 39 -84 70 -84 159 0 96 9 132 34 142 12 5
260 8 553 7 493 -2 534 -3 550 -20z"/>
<path d="M4415 7517 c-81 -80 -76 21 -73 -1508 l3 -1354 23 -46 c63 -126 177
-150 258 -55 68 79 65 -2 62 1502 -3 1298 -4 1361 -22 1401 -10 24 -34 56 -52
73 -31 26 -42 30 -96 30 -58 0 -62 -2 -103 -43z"/>
<path d="M9173 7538 c-17 -12 -44 -43 -59 -68 l-29 -45 0 -1380 c0 -1517 -4
-1423 62 -1496 85 -94 198 -63 261 69 16 35 17 124 17 1407 0 1119 -2 1378
-13 1415 -8 25 -30 60 -52 82 -35 35 -42 38 -96 38 -45 0 -67 -5 -91 -22z"/>
</g>
</svg>
